<svg xmlns="http://www.w3.org/2000/svg" width="102" height="102" fill="none" viewBox="0 0 102 102">
  <path fill="#FDD331" stroke="#000" d="M1 1h100v100H1z"/>
  <path fill="#D9D9D9" stroke="#000" d="M17.5 38.5h63v33h-63z"/>
  <path fill="#000" stroke="#000" d="M80.5 45.5h4v19h-4z"/>
  <path fill="#FD24AF" stroke="#000" d="M24.5 45.5h7v19h-7z"/>
  <path stroke="#000" d="M35.5 45.5h6v19h-6zM45.5 45.5h7v19h-7zM56.5 45.5h6v19h-6zM66.5 45.5h7v19h-7z"/>
  <path fill="#fff" stroke="#000" d="m62.1641 50.9648 3.3569 2.9108 2.339 4.7013-1.0585 1.2207-7.019-6.0862 2.3816-2.7466Z"/>
  <path fill="#000" stroke="#000" stroke-width="1.00000042" d="m59.4922 54.0449 7.01898356 6.0861483.55448055-.63946681-7.01898356-6.0861483z"/>
  <path fill="#fff" stroke="#000" d="m80.6016 38.4062-.0449-3.9684 1.7549-4.3496 1.4431-.0164.0938 8.2977-3.2469.0367Z"/>
  <path fill="#000" stroke="#000" stroke-width=".99999993" d="m84.2422 38.3662-.09383295-8.29768891-.75596262.00854867.09383295 8.29768891z"/>
  <path fill="#000" stroke="#000" d="M80.5 34.4756V38.5h-19v-4.9744l19 .95Z"/>
  <path fill="#fff" fill-rule="evenodd" d="M25.3812 29.5557c2.4002.3926 4.2214 2.3011 4.2214 4.5962 0 2.5793-2.3 4.6702-5.1372 4.6702-2.8373 0-5.1373-2.0909-5.1373-4.6702 0-2.4468 2.0698-4.4541 4.7046-4.6539.0914-.2806.3551-.4834.6662-.4834.332 0 .6101.231.6823.5411Z" clip-rule="evenodd"/>
  <path fill="#000" d="m25.3812 29.5557-.487.1134.0759.326.3303.054.0808-.4934Zm-1.3485-.0577.0378.4986.3338-.0253.1038-.3184-.4754-.1549Zm1.2677.5511c2.1977.3595 3.8022 2.0903 3.8022 4.1028h1c0-2.5778-2.0379-4.6639-4.6407-5.0897l-.1615.9869Zm3.8022 4.1028c0 2.2594-2.0303 4.1702-4.6372 4.1702v1c3.0674 0 5.6372-2.271 5.6372-5.1702h-1Zm-4.6372 4.1702c-2.607 0-4.6373-1.9108-4.6373-4.1702h-1c0 2.8992 2.5698 5.1702 5.6373 5.1702v-1Zm-4.6373-4.1702c0-2.1444 1.8254-3.9721 4.2424-4.1553l-.0756-.9972c-2.8525.2163-5.1668 2.4032-5.1668 5.1525h1Zm4.68-4.499c.0263-.0809.1025-.1383.1908-.1383v-1c-.5339 0-.9852.3482-1.1417.8285l.9509.3098Zm.1908-.1383c.0944 0 .1746.0658.1953.1545l.9739-.2268c-.1237-.5314-.5996-.9277-1.1692-.9277v1Z"/>
  <path stroke="#000" d="M23 31.2073c.4-.0996 1.2.1195 1.2 1.7927m2.8-2.9876c-.1333-.0997-.4.3581-.4 2.9876"/>
  <path fill="#000" fill-rule="evenodd" d="M57.6226 30.8828H46.4141v7.0053h12.1425v14.9447h6.0713V37.8881c0-3.8689-3.1364-7.0053-7.0053-7.0053Z" clip-rule="evenodd"/>
  <path fill="#000" d="M46.4141 30.8828v-.5h-.5v.5h.5Zm0 7.0053h-.5v.5h.5v-.5Zm12.1425 0h.5v-.5h-.5v.5Zm0 14.9447h-.5v.5h.5v-.5Zm6.0713 0v.5h.5v-.5h-.5Zm-18.2138-21.45h11.2085v-1H46.4141v1Zm.5 6.5053v-7.0053h-1v7.0053h1Zm11.6425-.5H46.4141v1h12.1425v-1Zm.5 15.4447V37.8881h-1v14.9447h1Zm5.5713-.5h-6.0713v1h6.0713v-1Zm-.5-14.4447v14.9447h1V37.8881h-1Zm-6.5053-6.5053c3.5928 0 6.5053 2.9125 6.5053 6.5053h1c0-4.145-3.3603-7.5053-7.5053-7.5053v1Z"/>
  <mask id="a" fill="#fff">
    <path fill-rule="evenodd" d="M27.7825 37.8917c-.0318.3056-.0481.6159-.0481.9299h.4695l7.4421 16.4258 3.9085-1.546-5.0622-14.8798h13.791v-8.8734H36.6078c-4.5416 0-8.2863 3.412-8.8106 7.8124l-.0628.0248.0481.1063Z" clip-rule="evenodd"/>
  </mask>
  <path fill="#000" fill-rule="evenodd" d="M27.7825 37.8917c-.0318.3056-.0481.6159-.0481.9299h.4695l7.4421 16.4258 3.9085-1.546-5.0622-14.8798h13.791v-8.8734H36.6078c-4.5416 0-8.2863 3.412-8.8106 7.8124l-.0628.0248.0481.1063Z" clip-rule="evenodd"/>
  <path fill="#000" d="M27.7344 38.8216h-1v1h1v-1Zm.0481-.9299.9946.1036.0281-.2695-.1118-.2468-.9109.4127Zm.4214.9299.9108-.4126-.2661-.5874h-.6447v1Zm7.4421 16.4258-.9109.4127.3931.8675.8856-.3503-.3678-.9299Zm3.9085-1.546.3678.9299.8857-.3503-.3068-.9017-.9467.3221Zm-5.0622-14.8798v-1h-1.3965l.4498 1.3221.9467-.3221Zm13.791 0v1h1v-1h-1Zm0-8.8734h1v-1h-1v1Zm-20.4861 7.8124.3678.9299.5546-.2194.0705-.5922-.9929-.1183Zm-.0628.0248-.3679-.9299-.9763.3863.4333.9563.9109-.4127Zm1 1.0362c0-.2794.0145-.555.0427-.8263l-1.9892-.2072c-.0354.34-.0535.6848-.0535 1.0335h2Zm-.5305-1h-.4695v2h.4695v-2Zm8.3529 17.0131L29.1147 38.409l-1.8217.8253 7.4421 16.4258 1.8217-.8254Zm2.6299-2.0632-3.9085 1.546.7356 1.8598 3.9085-1.546-.7356-1.8598Zm-5.6411-13.6278 5.0622 14.8798 1.8934-.6442-5.0622-14.8797-1.8934.6441Zm14.7377-1.3221h-13.791v2h13.791v-2Zm-1-7.8734v8.8734h2v-8.8734h-2Zm-10.6755 1h11.6755v-2H36.6078v2Zm-7.8177 6.9307c.4652-3.9034 3.7886-6.9307 7.8177-6.9307v-2c-5.0541 0-9.2201 3.7967-9.8036 8.6941l1.9859.2366Zm-.6879.8364.0628-.0248-.7357-1.8598-.0628.0248.7357 1.8598Zm.5912-1.2363-.0482-.1062-1.8217.8253.0482.1063 1.8217-.8254Z" mask="url(#a)"/>
  <path fill="#000" stroke="#000" d="M18.3691 29.0142c-1.2841-.183-1.1465 1.4488-.9172 2.2876-1.3762 0 .9172 2.7451 0 3.6602-.9172.915 3.2106 2.9738 3.4399 3.66.1834.5491 4.8152.3813 7.1082.2288v-3.4313c0-1.3726-1.8344-2.0588-2.293-1.3726-.4586.6863-.9172.9151-2.0636 0-1.1465-.915-.4586-.6862-1.8344-.6862s-1.1465-2.7451-1.1465-3.6601c0-.9151-.6883-.4576-2.2934-.6864Z"/>
  <path fill="#fff" stroke="#000" d="m37.9014 58.5308-1.1347-3.5137 1.9405-.6533 1.731 3.0519c.4264.7517.0724 1.7061-.741 1.998-.7405.2658-1.554-.1342-1.7958-.8829Z"/>
</svg>