<svg width="1033" height="207" viewBox="0 0 1033 207" fill="none" xmlns="http://www.w3.org/2000/svg">
<path d="M46.9826 49.0825L78.4041 159.137H79.6011L111.023 49.0825H158.005L107.432 205.171H50.5736L0 49.0825H46.9826Z" fill="white"/>
<path d="M172.762 205.171V49.0825H283.186V83.2268H214.358V110.054H277.5V144.199H214.358V171.027H282.887V205.171H172.762ZM204.782 35.3638C199.695 35.3638 195.381 33.6362 191.839 30.1811C188.298 26.7261 186.528 22.5596 186.528 17.6819C186.528 12.8041 188.298 8.6377 191.839 5.18263C195.381 1.72754 199.695 0 204.782 0C209.72 0 213.934 1.72754 217.425 5.18263C220.967 8.6377 222.737 12.8041 222.737 17.6819C222.737 22.5596 220.967 26.7261 217.425 30.1811C213.934 33.6362 209.72 35.3638 204.782 35.3638ZM252.363 35.3638C247.276 35.3638 242.962 33.6362 239.42 30.1811C235.879 26.7261 234.109 22.5596 234.109 17.6819C234.109 12.8041 235.879 8.6377 239.42 5.18263C242.962 1.72754 247.276 0 252.363 0C257.301 0 261.515 1.72754 265.007 5.18263C268.548 8.6377 270.318 12.8041 270.318 17.6819C270.318 22.5596 268.548 26.7261 265.007 30.1811C261.515 33.6362 257.301 35.3638 252.363 35.3638Z" fill="white"/>
<path d="M303.816 205.171V49.0825H369.951C381.322 49.0825 391.272 51.1911 399.801 55.4083C408.33 59.6256 414.963 65.6973 419.701 73.6237C424.439 81.5501 426.808 91.0515 426.808 102.128C426.808 113.306 424.365 122.732 419.477 130.404C414.639 138.076 407.831 143.869 399.053 147.781C390.325 151.693 380.125 153.649 368.454 153.649H328.953V120.725H360.075C364.963 120.725 369.128 120.115 372.569 118.895C376.06 117.625 378.729 115.618 380.574 112.874C382.469 110.131 383.417 106.549 383.417 102.128C383.417 97.6569 382.469 94.0239 380.574 91.2294C378.729 88.384 376.06 86.3008 372.569 84.9797C369.128 83.6079 364.963 82.9219 360.075 82.9219H345.412V205.171H303.816ZM393.591 133.529L431.896 205.171H386.709L349.302 133.529H393.591Z" fill="white"/>
<path d="M527.133 97.8601C526.734 92.7791 524.863 88.8159 521.522 85.9705C518.23 83.1252 513.218 81.7025 506.484 81.7025C502.195 81.7025 498.679 82.236 495.936 83.303C493.242 84.3192 491.247 85.7165 489.951 87.4948C488.654 89.2732 487.981 91.3056 487.931 93.592C487.831 95.472 488.155 97.1741 488.903 98.6985C489.701 100.172 490.948 101.518 492.644 102.738C494.34 103.906 496.509 104.973 499.153 105.939C501.796 106.904 504.938 107.768 508.579 108.53L521.148 111.274C529.627 113.103 536.883 115.517 542.918 118.514C548.953 121.512 553.891 125.043 557.731 129.108C561.572 133.122 564.39 137.644 566.185 142.675C568.031 147.705 568.978 153.192 569.028 159.137C568.978 169.401 566.46 178.089 561.472 185.202C556.484 192.316 549.352 197.727 540.075 201.436C530.849 205.145 519.751 207 506.784 207C493.467 207 481.846 204.993 471.921 200.979C462.045 196.965 454.365 190.792 448.878 182.459C443.442 174.075 440.699 163.354 440.649 150.296H480.15C480.4 155.072 481.572 159.086 483.666 162.338C485.761 165.59 488.704 168.054 492.494 169.731C496.335 171.408 500.898 172.246 506.185 172.246C510.624 172.246 514.34 171.687 517.332 170.569C520.325 169.451 522.594 167.902 524.14 165.92C525.686 163.939 526.484 161.677 526.534 159.137C526.484 156.749 525.711 154.666 524.215 152.887C522.769 151.058 520.375 149.432 517.033 148.01C513.691 146.536 509.178 145.164 503.492 143.894L488.23 140.54C474.664 137.543 463.966 132.538 456.135 125.526C448.355 118.464 444.489 108.835 444.539 96.6406C444.489 86.7327 447.083 78.0696 452.32 70.6513C457.607 63.1823 464.913 57.3645 474.24 53.1981C483.617 49.0317 494.365 46.9485 506.484 46.9485C518.853 46.9485 529.552 49.0571 538.579 53.2743C547.607 57.4915 554.564 63.4363 559.452 71.1086C564.39 78.7301 566.883 87.6473 566.933 97.8601H527.133Z" fill="white"/>
<path d="M580.661 83.2268V49.0825H713.829V83.2268H667.744V205.171H626.746V83.2268H580.661Z" fill="white"/>
<path d="M729.483 205.171V49.0825H771.079V112.188H773.174L819.259 49.0825H867.738L815.967 118.591L868.935 205.171H819.259L784.845 146.638L771.079 164.929V205.171H729.483Z" fill="white"/>
<path d="M919.883 205.171H874.995L925.568 49.0825H982.426L1033 205.171H988.112L954.596 92.0677H953.399L919.883 205.171ZM911.504 143.589H995.893V175.295H911.504V143.589Z" fill="white"/>
</svg>
